<svg preserveAspectRatio="none" width="100%" height="100%" overflow="visible" style="display: block;" viewBox="0 0 124.08 32" fill="none" xmlns="http://www.w3.org/2000/svg">
<g id="Group 3586">
<path id="Vector" d="M20.96 29.96C20.16 30.5467 19.04 31.04 17.6 31.44C16.1867 31.8133 14.3467 32 12.08 32C9.84 32 7.70667 31.8133 5.68 31.44C3.65333 31.0667 2.2 30.6533 1.32 30.2C0.44 29.7467 0 29.3067 0 28.88C0 27.3867 0.213333 25.84 0.64 24.24C1.06667 22.6133 1.57333 21.8 2.16 21.8C2.26667 21.8 3.37333 22.16 5.48 22.88C7.58667 23.6 9.17333 23.96 10.24 23.96C11.3067 23.96 12 23.8533 12.32 23.64C12.64 23.4 12.8 23.0667 12.8 22.64C12.8 22.2133 12.5067 21.84 11.92 21.52C11.3333 21.1733 10.6 20.88 9.72 20.64C8.84 20.3733 7.88 20 6.84 19.52C5.82667 19.04 4.88 18.5067 4 17.92C3.12 17.3333 2.38667 16.5067 1.8 15.44C1.21333 14.3467 0.92 13.1067 0.92 11.72C0.92 5.8 4.45333 2.84 11.52 2.84C14.16 2.84 16.44 3.01333 18.36 3.36C20.28 3.68 21.6267 4.05333 22.4 4.48C23.2 4.88 23.6 5.28 23.6 5.68C23.6 7.06666 23.2667 8.56 22.6 10.16C21.96 11.76 21.3333 12.56 20.72 12.56C20.6133 12.56 20.2667 12.44 19.68 12.2C17.92 11.4267 16.4533 11.04 15.28 11.04C14.1333 11.04 13.3467 11.1467 12.92 11.36C12.52 11.5733 12.32 11.9067 12.32 12.36C12.32 12.7867 12.6133 13.1467 13.2 13.44C13.7867 13.7067 14.5067 13.96 15.36 14.2C16.24 14.4133 17.1867 14.76 18.2 15.24C19.24 15.6933 20.2 16.24 21.08 16.88C21.96 17.4933 22.6933 18.3733 23.28 19.52C23.8667 20.6667 24.16 22 24.16 23.52C24.16 25.12 23.7467 26.5733 22.92 27.88C22.4133 28.68 21.76 29.3733 20.96 29.96Z" fill="var(--fill-0, #F97B22)"/>
<path id="Vector_2" d="M50.2802 18.72V31.04C50.2802 31.3333 49.5202 31.5733 48.0002 31.76C46.4802 31.92 44.9068 32 43.2802 32C41.6802 32 40.6402 31.9333 40.1602 31.8C39.7068 31.64 39.4802 31.3867 39.4802 31.04V18.32C39.4802 17.12 39.4268 16.3333 39.3202 15.96C39.2402 15.5867 39.1602 15.2533 39.0802 14.96C38.8935 14.4533 38.5602 14.2 38.0802 14.2C37.3335 14.2 36.9602 14.56 36.9602 15.28V31.04C36.9602 31.3333 36.2002 31.5733 34.6802 31.76C33.1868 31.92 31.6268 32 30.0002 32C28.4002 32 27.3602 31.9333 26.8802 31.8C26.4002 31.64 26.1602 31.3867 26.1602 31.04V11.32C26.1602 10.76 26.9202 10.2 28.4402 9.64C29.9868 9.08 31.6135 8.8 33.3202 8.8C35.0268 8.8 35.9868 9.29334 36.2002 10.28L36.5602 12.04H36.8402C37.6135 10.4933 38.9468 9.41334 40.8402 8.8C41.6135 8.56 42.4668 8.44 43.4002 8.44C46.0935 8.44 47.9068 9.25334 48.8402 10.88C49.8002 12.48 50.2802 15.0933 50.2802 18.72Z" fill="var(--fill-0, #F97B22)"/>
<path id="Vector_3" d="M60.0803 32C57.6536 32 55.7469 31.4267 54.3603 30.28C53.8003 29.8 53.3069 29.0934 52.8803 28.16C52.4803 27.2267 52.2803 26.1334 52.2803 24.88C52.2803 23.6267 52.5736 22.5334 53.1603 21.6C53.7736 20.6667 54.5069 19.9467 55.3603 19.44C56.2136 18.9334 57.2136 18.52 58.3603 18.2C60.0936 17.7467 62.0003 17.52 64.0803 17.52H65.4003C65.4003 16.4267 65.0269 15.6534 64.2803 15.2C63.9603 15.0134 63.4669 14.92 62.8003 14.92C62.1603 14.92 61.3736 15.0934 60.4403 15.44C59.5336 15.7867 58.7736 16.1467 58.1603 16.52C57.5469 16.8667 57.1336 17.04 56.9203 17.04C56.4403 17.04 55.7869 16.4134 54.9603 15.16C54.1336 13.88 53.7203 12.72 53.7203 11.68C53.7203 11.3334 54.2136 10.88 55.2003 10.32C56.1869 9.76002 57.5736 9.25335 59.3603 8.80002C61.1736 8.32002 62.9336 8.08002 64.6403 8.08002C66.3469 8.08002 67.8136 8.22668 69.0403 8.52002C70.2936 8.78668 71.3069 9.12002 72.0803 9.52002C72.8803 9.92002 73.5469 10.4534 74.0803 11.12C74.6403 11.7867 75.0536 12.3867 75.3203 12.92C75.6136 13.4534 75.8269 14.1467 75.9603 15C76.1469 15.9867 76.2403 17.2 76.2403 18.64V30.68C76.2403 30.9734 75.5203 31.2134 74.0803 31.4C72.6669 31.56 71.2536 31.64 69.8403 31.64C68.4536 31.64 67.5469 31.6 67.1203 31.52C66.7203 31.44 66.4803 31.3467 66.4003 31.24C66.3203 31.1334 66.2536 30.9467 66.2003 30.68L65.8803 28.4H65.5603C64.8936 30.8 63.0669 32 60.0803 32ZM65.4403 25.36V20.68C64.7469 20.68 64.1869 20.9734 63.7603 21.56C63.3336 22.1467 63.1203 22.8134 63.1203 23.56C63.1203 25.32 63.5203 26.2 64.3203 26.2C64.6669 26.2 64.9336 26.12 65.1203 25.96C65.3336 25.7734 65.4403 25.5734 65.4403 25.36Z" fill="var(--fill-0, #F97B22)"/>
<path id="Vector_4" d="M83.8002 30.96C83.1602 30.6667 82.4669 30.2267 81.7202 29.64C81.0002 29.0534 80.4002 28.36 79.9202 27.56C78.8002 25.64 78.2402 23.1334 78.2402 20.04C78.2402 18.12 78.5469 16.4134 79.1602 14.92C79.7736 13.4 80.5202 12.2267 81.4002 11.4C82.2802 10.5734 83.2936 9.89335 84.4402 9.36002C86.2802 8.50668 88.1202 8.08002 89.9602 8.08002C93.0536 8.08002 95.2002 8.32002 96.4002 8.80002C97.6269 9.28002 98.2402 10.0934 98.2402 11.24C98.2402 12.3867 98.0269 13.6134 97.6002 14.92C97.2002 16.2 96.6669 16.84 96.0002 16.84C95.7869 16.84 95.1336 16.6134 94.0402 16.16C92.9736 15.7067 92.0402 15.48 91.2402 15.48C90.4669 15.48 89.8669 15.8 89.4402 16.44C89.0402 17.0534 88.8402 18.2667 88.8402 20.08C88.8402 21.8667 89.0269 23.0934 89.4002 23.76C89.7736 24.4 90.3469 24.72 91.1202 24.72C91.9202 24.72 92.9069 24.4534 94.0802 23.92C95.2536 23.3867 95.9069 23.12 96.0402 23.12C96.5469 23.12 97.0269 23.72 97.4802 24.92C97.9602 26.12 98.2002 27.1867 98.2002 28.12C98.2002 29.56 97.4536 30.5734 95.9602 31.16C94.4669 31.72 92.4402 32 89.8802 32C87.3469 32 85.3202 31.6534 83.8002 30.96Z" fill="var(--fill-0, #F97B22)"/>
<path id="Vector_5" d="M111.04 30.24C111.04 30.5333 110.294 30.7733 108.8 30.96C107.307 31.12 105.747 31.2 104.12 31.2C102.494 31.2 101.44 31.1333 100.96 31C100.48 30.84 100.24 30.5867 100.24 30.24V2.56C100.24 1.97333 100.987 1.4 102.48 0.839999C104 0.28 105.627 0 107.36 0C109.814 0 111.04 0.613333 111.04 1.84V16.8H111.56C112.84 10.6933 113.787 7.64 114.4 7.64C115.947 7.64 117.814 8 120 8.72C122.187 9.44 123.28 10.24 123.28 11.12C123.28 11.76 122.747 12.9867 121.68 14.8C120.614 16.6133 119.507 18.0933 118.36 19.24C122.174 23.8 124.08 26.5067 124.08 27.36C124.08 28.16 122.867 29.1333 120.44 30.28C118.014 31.4267 116.307 32 115.32 32C114.84 32 114.334 31.4267 113.8 30.28C113.267 29.1067 112.694 27.36 112.08 25.04L111.04 26.28V30.24Z" fill="var(--fill-0, #F97B22)"/>
</g>
</svg>
